<svg width="107" height="24" viewBox="0 0 107 24" fill="none" xmlns="http://www.w3.org/2000/svg">
<path fill-rule="evenodd" clip-rule="evenodd" d="M18.0886 15.784C18.0886 15.3575 17.7477 15.0118 17.3272 15.0118H13.8834C13.4629 15.0118 13.122 14.6661 13.122 14.2396V12.1239C13.122 11.6974 13.4629 11.3517 13.8834 11.3517H20.6872C22.0669 8.19753 25.1818 5.9975 28.8032 5.9975C33.7045 5.9975 37.6778 10.0273 37.6778 14.9983C37.6778 19.9692 33.7045 23.999 28.8032 23.999C25.5043 23.999 22.6257 22.1734 21.0962 19.4639C20.9788 19.6131 20.8548 19.7631 20.724 19.9142C18.8299 22.1034 16.2154 23.5191 13.368 23.8974C10.5206 24.2757 7.63482 23.5907 5.24865 21.9703C2.86248 20.3498 1.13886 17.9045 0.399204 15.0902C-0.340454 12.276 -0.0456616 9.28494 1.22861 6.67487C2.50289 4.0648 4.66965 2.01387 7.32487 0.904523C9.98008 -0.204826 12.9425 -0.296865 15.6597 0.645571C17.2476 1.19634 18.6885 2.07844 19.8971 3.22069C20.0685 3.3827 20.3589 3.36109 20.5229 3.1914C20.7869 2.91838 21.2175 3.12808 21.219 3.51046L21.2247 4.96626C21.2269 5.54029 20.7687 6.00682 20.2027 6.00682H18.2128C17.9044 6.00682 17.6113 5.87972 17.3808 5.67183C16.558 4.92956 15.5919 4.35364 14.5332 3.98642C12.6155 3.32129 10.5248 3.38624 8.65086 4.16917C6.77693 4.9521 5.24773 6.39955 4.3484 8.24162C3.44908 10.0837 3.24103 12.1946 3.76304 14.1808C4.28506 16.167 5.50151 17.8928 7.18556 19.0364C8.86961 20.18 10.9063 20.6635 12.9158 20.3965C14.7248 20.1561 16.4007 19.3225 17.6923 18.0314C17.9569 17.767 18.0886 17.3991 18.0886 17.0224V15.784ZM28.541 13.7249L27.355 14.9279C27.2941 14.9896 27.1956 14.9898 27.134 14.9288C27.0787 14.874 27.0156 14.8119 26.9465 14.7441C26.6182 14.4215 26.1558 13.9671 25.7598 13.5282L25.6992 13.4612C25.3726 13.1004 25.0246 12.7158 24.8784 12.2712C24.5289 11.2078 24.8169 10.0288 25.2753 10.1591C25.2959 10.165 25.3141 10.1778 25.3292 10.1933L28.5419 13.5025C28.6019 13.5643 28.6015 13.6636 28.541 13.7249ZM30.3031 15.2918C30.2221 15.2096 30.0906 15.2095 30.0095 15.2917L29.4983 15.8096C29.4171 15.8918 29.4171 16.0252 29.4981 16.1074L32.6209 19.2778L32.6262 19.2834C32.848 19.5091 33.2082 19.5098 33.4307 19.2849C33.6533 19.06 33.654 18.6946 33.4322 18.4689L33.4273 18.464L30.3031 15.2918ZM31.6678 11.0779C31.6589 11.0839 31.6505 11.0909 31.6426 11.0989L30.8697 11.8803L30.8696 11.8818L30.8696 11.8832L30.8668 11.886C30.8003 11.953 30.7979 12.064 30.8613 12.134C30.9248 12.2039 31.0301 12.2063 31.0966 12.1393C31.099 12.1368 31.1014 12.1343 31.1037 12.1317L31.1094 12.1251C31.1142 12.1195 31.1191 12.1138 31.1243 12.1086L31.882 11.3425C31.8937 11.3307 31.9033 11.3176 31.9109 11.3037L32.1733 11.0368C32.1824 11.0252 32.1922 11.0139 32.2028 11.0032C32.349 10.8549 32.5861 10.8549 32.7323 11.0032C32.8785 11.1515 32.8785 11.3919 32.7323 11.5402L32.7266 11.5458L32.7266 11.5478L32.7269 11.5484L32.7266 11.5497L31.8105 12.4813L31.811 12.4822L31.7166 12.5776L31.7163 12.5783L31.7166 12.579L31.7165 12.5804L31.7134 12.5835C31.6438 12.6537 31.6412 12.7699 31.7076 12.8432C31.7741 12.9164 31.8843 12.9189 31.9539 12.8487C31.9567 12.8459 31.9595 12.8429 31.9621 12.8399L31.9639 12.8465L32.9356 11.8583C32.9447 11.8467 32.9545 11.8354 32.9651 11.8247C33.1113 11.6764 33.3484 11.6764 33.4946 11.8247C33.6408 11.9729 33.6408 12.2134 33.4946 12.3616L33.4921 12.3642L33.4906 12.3657L33.4889 12.3673L33.4889 12.3692L33.4893 12.3698L33.4893 12.3705L33.4889 12.3712L31.648 14.2432C31.6279 14.2636 31.6045 14.2785 31.5795 14.2879C31.3174 14.5487 30.9582 14.7096 30.5619 14.7096C30.3688 14.7096 30.1845 14.6714 30.016 14.602L25.4555 19.2396C25.4422 19.2564 25.4279 19.2727 25.4125 19.2883C25.1904 19.5136 24.8302 19.5136 24.608 19.2883C24.3858 19.063 24.3858 18.6977 24.608 18.4723L24.6118 18.4686C24.6125 18.4678 24.6125 18.4667 24.6118 18.4659L24.6113 18.4653L24.6118 18.4633L29.2128 13.7845C29.1457 13.6149 29.1087 13.4297 29.1087 13.2357C29.1087 12.8451 29.2586 12.4901 29.5031 12.2263C29.5123 12.2024 29.5265 12.1799 29.5455 12.1605L31.3634 10.312C31.3724 10.3004 31.3823 10.2891 31.3929 10.2784C31.5391 10.1301 31.7761 10.1301 31.9223 10.2784C32.0685 10.4266 32.0685 10.6671 31.9223 10.8153L31.9166 10.821L31.9166 10.8229L31.9166 10.8249L31.6678 11.0779Z" fill="#0070F3"/>
<path d="M103.541 0.000913734V23.9999H107V0.000913734H103.541Z" fill="#0070F3"/>
<path fill-rule="evenodd" clip-rule="evenodd" d="M95.7015 18.7186H99.3669C98.248 21.6527 95.8944 24 91.8433 24C87.2134 24 83.548 20.2835 83.548 15.0021C83.548 9.72065 87.1748 6.0041 91.6504 6.0041C96.1259 6.0041 99.7527 9.72065 99.7527 15.0021C99.7527 15.3479 99.7029 15.6685 99.6633 15.9232L99.663 15.9248C99.6535 15.9864 99.6445 16.0442 99.637 16.0975L99.5598 16.5669H87.2134C87.4063 18.7577 89.3354 20.6747 91.8433 20.6747C93.9653 20.6747 95.1228 19.501 95.7015 18.7186ZM87.2134 13.6328H96.4732C96.0488 11.0899 94.3897 9.32943 91.6504 9.32943C89.3354 9.32943 87.6378 11.0899 87.2134 13.6328Z" fill="#0070F3"/>
<path d="M72.6045 6.20186V24H76.1147V13.9144C76.1147 11.5809 78.0258 9.56373 80.4049 9.56373C80.5869 9.56373 80.7689 9.59889 80.9509 9.63405C81.0419 9.65162 81.1329 9.6692 81.224 9.68239L81.575 9.76149V6.20186L81.263 6.12276C81.2247 6.11499 81.1849 6.1057 81.1424 6.09579C80.9685 6.0552 80.7497 6.0041 80.4049 6.0041C78.8838 6.0041 77.7918 6.51827 77.0507 6.99289C76.6217 7.26975 76.2317 7.62571 75.9197 7.98167L75.1396 6.20186H72.6045Z" fill="#0070F3"/>
<path d="M61.3155 17.8758V9.38114H58.2016V6.02278H59.564C60.9263 6.02278 61.8994 5.03502 61.8994 3.65217V1.28156H64.8186V6.02278H68.711V9.38114H64.8186V17.8758C64.8186 19.4562 65.9863 20.6415 67.5433 20.6415C67.8157 20.6415 68.0882 20.602 68.3606 20.5625L68.711 20.444V23.6048C68.5553 23.6838 68.3607 23.7628 68.1661 23.8023C67.7768 23.9209 67.3097 23.9999 66.7648 23.9999C63.6509 23.9999 61.3155 21.6293 61.3155 17.8758Z" fill="#0070F3"/>
<path d="M40.1162 6.20186V24H43.6256V13.7166C43.6256 11.3831 45.5363 9.36598 47.9149 9.36598C50.0985 9.36598 52.0092 11.3831 52.0092 13.7166V24H55.5186V13.7166C55.5186 9.16822 52.3991 6.0041 48.4998 6.0041C46.7451 6.0041 45.4583 6.51827 44.6395 6.99289C44.1715 7.26975 43.7816 7.62571 43.4307 7.98167L42.6508 6.20186H40.1162Z" fill="#0070F3"/>
</svg>
