<svg width="24" height="24" viewBox="0 0 24 24" fill="none" xmlns="http://www.w3.org/2000/svg">
<path d="M12 12.1504C14.3279 12.1504 16.4767 12.6793 18.0742 13.5771C19.6432 14.4611 20.8496 15.8137 20.8496 17.5V17.6016C20.8506 18.7583 20.8573 20.2662 19.5371 21.3418C18.8899 21.8677 17.9926 22.2377 16.7939 22.4795C15.5909 22.7233 14.0294 22.8496 12 22.8496C9.9706 22.8496 8.40813 22.7224 7.20703 22.4785C6.00856 22.2368 5.11005 21.8678 4.46387 21.3418C3.14366 20.2662 3.1494 18.7584 3.15039 17.6016V17.5C3.15039 15.8137 4.3568 14.4611 5.92676 13.5771C7.52331 12.6793 9.6731 12.1504 12 12.1504ZM12.001 13.8496C9.90896 13.8496 8.05821 14.3294 6.75977 15.0596C5.43587 15.8042 4.84961 16.701 4.84961 17.5C4.84961 18.8173 4.89559 19.501 5.53711 20.0234L5.68164 20.1309C6.04768 20.3816 6.62403 20.6268 7.54395 20.8125V20.8135C8.59084 21.0256 10.0295 21.1504 12 21.1504C13.9705 21.1504 15.4081 21.0247 16.4561 20.8125C17.5074 20.6002 18.1102 20.3103 18.4629 20.0225L18.5762 19.9229C19.11 19.4132 19.1504 18.7352 19.1504 17.5C19.1504 16.7009 18.5651 15.8042 17.2402 15.0596C15.9418 14.3294 14.091 13.8496 12.001 13.8496ZM12 1.15039C13.2863 1.15039 14.5201 1.66078 15.4297 2.57031C16.3392 3.47986 16.8496 4.7137 16.8496 6C16.8496 7.2863 16.3392 8.52014 15.4297 9.42969C14.5201 10.3392 13.2863 10.8496 12 10.8496C10.7137 10.8496 9.47985 10.3392 8.57031 9.42969C7.66078 8.52014 7.15039 7.28629 7.15039 6C7.15039 4.71371 7.66078 3.47986 8.57031 2.57031C9.47985 1.66077 10.7137 1.15041 12 1.15039ZM12 2.84961C11.1646 2.84962 10.3632 3.18173 9.77246 3.77246C9.18174 4.3632 8.84961 5.16458 8.84961 6C8.84961 6.83542 9.18174 7.6368 9.77246 8.22754C10.3632 8.81827 11.1646 9.15038 12 9.15039C12.8354 9.15039 13.6368 8.81826 14.2275 8.22754C14.8183 7.6368 15.1504 6.83543 15.1504 6C15.1504 5.16457 14.8183 4.3632 14.2275 3.77246C13.6368 3.18174 12.8354 2.84961 12 2.84961Z" fill="#8A8A8A" stroke="#8A8A8A" stroke-width="0.2"/>
</svg>
