<svg width="24" height="24" viewBox="0 0 24 24" fill="none" xmlns="http://www.w3.org/2000/svg">
<path fill-rule="evenodd" clip-rule="evenodd" d="M6.26831 0.814425C8.10945 0.608711 10.0312 0.428711 11.9992 0.428711C13.9672 0.428711 15.8889 0.608711 17.73 0.814425C19.1294 0.974883 20.433 1.60535 21.4275 2.60274C22.4221 3.60014 23.0489 4.90546 23.2055 6.30528C23.4026 8.13786 23.5706 10.0459 23.5706 12.0001C23.5706 13.9544 23.4026 15.8624 23.2055 17.695C23.0489 19.0948 22.4221 20.4001 21.4275 21.3975C20.433 22.3949 19.1294 23.0254 17.73 23.1859C15.8889 23.3916 13.9672 23.5716 11.9992 23.5716C10.0312 23.5716 8.10945 23.3916 6.26831 23.1859C4.86893 23.0254 3.56538 22.3949 2.57079 21.3975C1.57619 20.4001 0.949397 19.0948 0.792877 17.695C0.595734 15.8624 0.427734 13.9544 0.427734 12.0001C0.427734 10.0459 0.595734 8.13786 0.792877 6.30528C0.949397 4.90546 1.57619 3.60014 2.57079 2.60274C3.56538 1.60535 4.86893 0.974883 6.26831 0.814425ZM14.2826 4.94071C14.2234 4.68421 14.0719 4.45847 13.8569 4.30656C13.6419 4.15465 13.3785 4.0872 13.117 4.11709C12.8554 4.14697 12.614 4.2721 12.4389 4.46859C12.2637 4.66508 12.167 4.91918 12.1672 5.18243V15.0859C12.1672 15.6121 12.0111 16.1265 11.7188 16.564C11.4264 17.0015 11.0109 17.3425 10.5247 17.5439C10.0386 17.7453 9.50364 17.798 8.98754 17.6953C8.47144 17.5926 7.99737 17.3393 7.62528 16.9672C7.2532 16.5951 6.9998 16.121 6.89714 15.6049C6.79448 15.0888 6.84717 14.5539 7.04854 14.0677C7.24992 13.5815 7.59093 13.166 8.02846 12.8737C8.46599 12.5813 8.98038 12.4253 9.50659 12.4253C9.79075 12.4253 10.0633 12.3124 10.2642 12.1115C10.4651 11.9105 10.578 11.638 10.578 11.3539C10.578 11.0697 10.4651 10.7972 10.2642 10.5962C10.0633 10.3953 9.79075 10.2824 9.50659 10.2824C8.55656 10.2824 7.62787 10.5641 6.83795 11.092C6.04803 11.6198 5.43236 12.37 5.0688 13.2477C4.70524 14.1254 4.61012 15.0912 4.79546 16.023C4.9808 16.9547 5.43828 17.8106 6.11006 18.4824C6.78183 19.1542 7.63772 19.6116 8.56949 19.797C9.50126 19.9823 10.4671 19.8872 11.3448 19.5236C12.2225 19.1601 12.9727 18.5444 13.5005 17.7545C14.0283 16.9646 14.31 16.0359 14.31 15.0859V9.103C15.3386 9.97728 16.6655 10.4573 18.222 10.4573C18.5062 10.4573 18.7787 10.3444 18.9796 10.1435C19.1806 9.94254 19.2935 9.67002 19.2935 9.38585C19.2935 9.10169 19.1806 8.82917 18.9796 8.62824C18.7787 8.42731 18.5062 8.31443 18.222 8.31443C17.0906 8.31443 16.2506 7.96471 15.6317 7.41443C15.0009 6.85214 14.5329 6.01557 14.2826 4.94071Z" fill="#2E3032"/>
</svg>
