<svg width="19" height="18" viewBox="0 0 19 18" fill="none" xmlns="http://www.w3.org/2000/svg">
<path d="M5.52124 9.19116C5.89955 9.22946 6.19507 9.54909 6.19507 9.9375C6.19507 10.3259 5.89955 10.6455 5.52124 10.6838L5.44507 10.6875H5.43774C5.02366 10.6873 4.68774 10.3516 4.68774 9.9375C4.68774 9.52338 5.02366 9.18766 5.43774 9.1875H5.44507L5.52124 9.19116Z" fill="#9DA1A5"/>
<path d="M8.14624 9.19116C8.52455 9.22946 8.82007 9.54909 8.82007 9.9375C8.82007 10.3259 8.52455 10.6455 8.14624 10.6838L8.07007 10.6875H8.06274C7.64866 10.6873 7.31274 10.3516 7.31274 9.9375C7.31274 9.52338 7.64866 9.18766 8.06274 9.1875H8.07007L8.14624 9.19116Z" fill="#9DA1A5"/>
<path d="M10.7712 9.19116C11.1495 9.22946 11.4451 9.54909 11.4451 9.9375C11.4451 10.3259 11.1495 10.6455 10.7712 10.6838L10.6951 10.6875H10.6877C10.2737 10.6873 9.93774 10.3516 9.93774 9.9375C9.93774 9.52338 10.2737 9.18766 10.6877 9.1875H10.6951L10.7712 9.19116Z" fill="#9DA1A5"/>
<path fill-rule="evenodd" clip-rule="evenodd" d="M13.4592 0.9375C14.7424 0.937554 15.8086 1.25965 16.55 2.00098C17.2916 2.74251 17.6143 3.80913 17.6143 5.09253V8.09253C17.6143 9.27425 17.3431 10.2709 16.7214 11.001C16.1817 11.6348 15.4299 12.0055 14.5242 12.1575C14.3718 13.0668 13.9988 13.8192 13.3633 14.3584C12.6323 14.9786 11.6365 15.2475 10.4592 15.2476H10.1589C10.1551 15.2476 10.1488 15.2486 10.1421 15.252C10.1356 15.2552 10.1312 15.2592 10.1289 15.2622L9.22876 16.4626L9.22803 16.4619C8.9401 16.847 8.52324 17.0866 8.05908 17.0867C7.59464 17.0867 7.17665 16.8474 6.88867 16.4619L6.00098 15.2783C5.99466 15.2734 5.9838 15.2661 5.97021 15.2593C5.95793 15.2531 5.94751 15.2495 5.94092 15.2476H5.65894C4.45346 15.2476 3.36319 15.1081 2.59521 14.4375C1.80843 13.7504 1.50391 12.6408 1.50391 11.0925V8.09253C1.50391 6.91426 1.77494 5.91842 2.396 5.18774C2.93541 4.55326 3.68694 4.18078 4.59326 4.02832C4.7458 3.12137 5.11936 2.36926 5.75415 1.82959C6.48483 1.20854 7.48067 0.9375 8.65894 0.9375H13.4592ZM5.65894 5.0625C5.47719 5.0625 5.31467 5.06955 5.16602 5.08813C5.1588 5.08903 5.15129 5.08971 5.14404 5.09033C4.23776 5.16787 3.63689 5.46573 3.25366 5.9165C2.86426 6.37456 2.62891 7.07347 2.62891 8.09253V11.0925C2.62891 12.5441 2.92445 13.231 3.33569 13.5901C3.76586 13.9656 4.47206 14.1226 5.65894 14.1226H5.95923C6.15607 14.1226 6.33954 14.1853 6.47778 14.2551C6.5818 14.3077 6.69518 14.3816 6.79346 14.4785L6.88574 14.5833L6.88867 14.5876L7.78882 15.7874L7.78955 15.7888C7.89902 15.9354 8.0025 15.9617 8.05908 15.9617C8.11568 15.9616 8.21857 15.9351 8.32788 15.7888L8.32861 15.7874L9.22876 14.5876C9.44749 14.296 9.79438 14.1226 10.1589 14.1226H10.4592C11.4788 14.1225 12.1776 13.8889 12.6353 13.5007C13.0854 13.1188 13.3831 12.5179 13.4607 11.6074L13.4629 11.5854C13.4815 11.4368 13.4893 11.2743 13.4893 11.0925V8.09253C13.4893 6.98357 13.2111 6.25372 12.7546 5.79712C12.2981 5.34057 11.5681 5.06255 10.4592 5.0625H5.65894ZM8.65894 2.0625C7.63987 2.0625 6.94096 2.29786 6.48291 2.68726C6.14807 2.97193 5.89762 3.37659 5.75928 3.9375H10.4592C11.3416 3.93754 12.1213 4.08985 12.7634 4.42603C12.8217 4.45652 12.8789 4.48843 12.9348 4.52197C13.047 4.58921 13.1544 4.66266 13.2571 4.74243C13.3597 4.82217 13.4574 4.90833 13.55 5.00098C13.5964 5.0473 13.641 5.09496 13.6841 5.1438C13.9858 5.48581 14.2084 5.88871 14.3601 6.34351C14.4034 6.47338 14.441 6.60748 14.4729 6.74561C14.5528 7.09119 14.5979 7.46191 14.6106 7.85449C14.6131 7.93297 14.6143 8.01233 14.6143 8.09253V10.9922C15.1754 10.8543 15.5801 10.6053 15.8645 10.2715C16.2534 9.81472 16.4893 9.11578 16.4893 8.09253V5.09253C16.4893 3.98357 16.2111 3.25372 15.7546 2.79712C15.2981 2.34057 14.5681 2.06255 13.4592 2.0625H8.65894Z" fill="#9DA1A5"/>
</svg>
