<svg width="32" height="32" viewBox="0 0 32 32" fill="none" xmlns="http://www.w3.org/2000/svg">
<rect width="32" height="32" rx="16" fill="#2E3032"/>
<path d="M16 16.1504C18.3279 16.1504 20.4767 16.6793 22.0742 17.5771C23.6432 18.4611 24.8496 19.8137 24.8496 21.5V21.6016C24.8506 22.7583 24.8573 24.2662 23.5371 25.3418C22.8899 25.8677 21.9926 26.2377 20.7939 26.4795C19.5909 26.7233 18.0294 26.8496 16 26.8496C13.9706 26.8496 12.4081 26.7224 11.207 26.4785C10.0086 26.2368 9.11005 25.8678 8.46387 25.3418C7.14366 24.2662 7.1494 22.7584 7.15039 21.6016V21.5C7.15039 19.8137 8.3568 18.4611 9.92676 17.5771C11.5233 16.6793 13.6731 16.1504 16 16.1504ZM16.001 17.8496C13.909 17.8496 12.0582 18.3294 10.7598 19.0596C9.43587 19.8042 8.84961 20.701 8.84961 21.5C8.84961 22.8173 8.89559 23.501 9.53711 24.0234L9.68164 24.1309C10.0477 24.3816 10.624 24.6268 11.5439 24.8125V24.8135C12.5908 25.0256 14.0295 25.1504 16 25.1504C17.9705 25.1504 19.4081 25.0247 20.4561 24.8125C21.5074 24.6002 22.1102 24.3103 22.4629 24.0225L22.5762 23.9229C23.11 23.4132 23.1504 22.7352 23.1504 21.5C23.1504 20.7009 22.5651 19.8042 21.2402 19.0596C19.9418 18.3294 18.091 17.8496 16.001 17.8496ZM16 5.15039C17.2863 5.15039 18.5201 5.66078 19.4297 6.57031C20.3392 7.47986 20.8496 8.7137 20.8496 10C20.8496 11.2863 20.3392 12.5201 19.4297 13.4297C18.5201 14.3392 17.2863 14.8496 16 14.8496C14.7137 14.8496 13.4799 14.3392 12.5703 13.4297C11.6608 12.5201 11.1504 11.2863 11.1504 10C11.1504 8.71371 11.6608 7.47986 12.5703 6.57031C13.4799 5.66077 14.7137 5.15041 16 5.15039ZM16 6.84961C15.1646 6.84962 14.3632 7.18173 13.7725 7.77246C13.1817 8.3632 12.8496 9.16458 12.8496 10C12.8496 10.8354 13.1817 11.6368 13.7725 12.2275C14.3632 12.8183 15.1646 13.1504 16 13.1504C16.8354 13.1504 17.6368 12.8183 18.2275 12.2275C18.8183 11.6368 19.1504 10.8354 19.1504 10C19.1504 9.16457 18.8183 8.3632 18.2275 7.77246C17.6368 7.18174 16.8354 6.84961 16 6.84961Z" fill="white" stroke="#9DA1A5" stroke-width="0.2"/>
</svg>
