<svg width="16" height="20" viewBox="0 0 16 20" fill="none" xmlns="http://www.w3.org/2000/svg">
<path fill-rule="evenodd" clip-rule="evenodd" d="M8.052 0H7.948C6.268 0 4.938 -4.47035e-08 3.896 0.142C2.824 0.289 1.956 0.598 1.272 1.294C0.588 1.99 0.284 2.874 0.14 3.964C-1.3411e-07 5.024 0 6.378 0 8.087V11.913C0 13.623 -1.3411e-07 14.977 0.14 16.036C0.284 17.126 0.588 18.01 1.272 18.706C1.956 19.402 2.824 19.711 3.896 19.858C4.937 20 6.268 20 7.948 20H8.052C9.732 20 11.062 20 12.104 19.858C13.176 19.711 14.044 19.402 14.728 18.706C15.412 18.01 15.716 17.126 15.86 16.036C16 14.976 16 13.622 16 11.913V8.087C16 6.377 16 5.023 15.86 3.964C15.716 2.874 15.412 1.99 14.728 1.294C14.044 0.598 13.176 0.289 12.104 0.142C11.063 -4.47035e-08 9.732 0 8.052 0ZM4.572 16.512C4.57094 16.4211 4.58785 16.331 4.62174 16.2466C4.65563 16.1623 4.70584 16.0855 4.76949 16.0207C4.83313 15.9558 4.90897 15.9042 4.99263 15.8687C5.07629 15.8332 5.16613 15.8147 5.257 15.814H10.743C11.122 15.814 11.429 16.126 11.429 16.512C11.4299 16.6029 11.4129 16.693 11.3789 16.7773C11.3449 16.8615 11.2945 16.9383 11.2308 17.003C11.1671 17.0678 11.0912 17.1193 11.0074 17.1547C10.9237 17.19 10.8339 17.2085 10.743 17.209H5.257C5.16613 17.2085 5.07626 17.19 4.99255 17.1547C4.90884 17.1193 4.83294 17.0678 4.7692 17.003C4.70545 16.9383 4.65513 16.8615 4.62112 16.7773C4.58711 16.693 4.57108 16.6029 4.572 16.512Z" fill="white"/>
</svg>
