<svg width="22" height="22" viewBox="0 0 22 22" fill="none" xmlns="http://www.w3.org/2000/svg">
<path d="M17.4401 12.7913L11.9411 3.20633C11.8035 2.96733 11.6202 2.75777 11.4016 2.58962C11.183 2.42147 10.9334 2.29803 10.6671 2.22633C10.1253 2.08144 9.54823 2.15505 9.06013 2.43133L7.86413 3.12733C7.83354 3.14052 7.80673 3.16115 7.78613 3.18733L7.71713 3.27433C7.64475 3.35144 7.59404 3.44631 7.57013 3.54933C7.14367 4.85109 6.61261 6.11622 5.98213 7.33233C5.53904 8.08084 4.941 8.72593 4.22813 9.22433L2.43413 10.8123C2.07048 11.1368 1.82847 11.5757 1.74813 12.0563C1.69703 12.3834 1.71716 12.7177 1.80713 13.0363C1.56113 13.1723 1.34713 13.3603 1.18013 13.5863C1.01096 13.8078 0.887565 14.0607 0.817129 14.3303C0.764082 14.6055 0.764082 14.8882 0.817129 15.1633C0.893321 15.7163 1.18255 16.2176 1.62313 16.5603C1.84313 16.7283 2.09613 16.8503 2.36613 16.9183C2.54213 16.9657 2.7218 16.9883 2.90513 16.9863C3.00246 16.9963 3.10046 16.9963 3.19913 16.9863C3.47113 16.9533 3.73213 16.8593 3.96313 16.7123C4.17913 16.9553 4.45213 17.1403 4.75713 17.2523C4.99413 17.3453 5.24713 17.3923 5.50213 17.3883C5.64146 17.3917 5.7788 17.3753 5.91413 17.3393L7.51113 20.1923C7.70182 20.5119 7.9715 20.7771 8.29425 20.9624C8.61701 21.1477 8.98199 21.2468 9.35413 21.2503C9.81933 21.2447 10.27 21.0876 10.6379 20.8029C11.0059 20.5181 11.271 20.1212 11.3931 19.6723C11.5314 19.13 11.4577 18.5553 11.1871 18.0653L9.99113 15.9873C10.3138 15.9153 10.6405 15.876 10.9711 15.8693C12.3661 15.9283 13.7531 16.1053 15.1171 16.3993H15.4601L15.6171 16.3293L15.7641 16.2413L16.8131 15.6343C17.2951 15.3553 17.6481 14.8973 17.7931 14.3603C17.8839 13.8113 17.7573 13.2485 17.4401 12.7913ZM5.55113 15.9483C5.41164 15.9973 5.25961 15.9973 5.12013 15.9483C4.9822 15.8993 4.86696 15.8015 4.79613 15.6733L3.30613 13.0663L3.20913 12.8993C3.13369 12.7674 3.10613 12.6134 3.13109 12.4634C3.15605 12.3135 3.23201 12.1768 3.34613 12.0763L4.45313 11.0963L4.86513 11.8213L6.99213 15.5463L5.55113 15.9483ZM16.2251 13.9883C16.177 14.1551 16.0687 14.298 15.9211 14.3893L15.3721 14.7033L9.23613 4.00933L9.79513 3.68633C9.86666 3.64373 9.94628 3.61649 10.0289 3.60633C10.1116 3.59617 10.1954 3.60332 10.2751 3.62733C10.3568 3.64767 10.4336 3.68416 10.5009 3.73466C10.5682 3.78516 10.6247 3.84863 10.6671 3.92133L16.1661 13.4973C16.215 13.5792 16.2456 13.6706 16.2558 13.7654C16.266 13.8601 16.2555 13.956 16.2251 14.0463V13.9883ZM15.9701 8.16533C15.8413 8.16753 15.7142 8.13509 15.6021 8.07142C15.4901 8.00774 15.3972 7.91516 15.3331 7.80333C15.2428 7.63725 15.2199 7.44274 15.2693 7.26023C15.3186 7.07772 15.4364 6.92125 15.5981 6.82333L18.0481 5.40133C18.2137 5.30842 18.409 5.28413 18.5923 5.33368C18.7755 5.38323 18.932 5.50266 19.0281 5.66633C19.1185 5.83241 19.1414 6.02692 19.092 6.20943C19.0427 6.39195 18.9249 6.54842 18.7631 6.64633L16.3131 8.06733C16.2092 8.12907 16.091 8.16284 15.9701 8.16533ZM20.4881 11.6353H17.6561C17.5596 11.6353 17.464 11.6163 17.3749 11.5794C17.2857 11.5424 17.2047 11.4883 17.1364 11.4201C17.0682 11.3518 17.014 11.2708 16.9771 11.1816C16.9401 11.0924 16.9211 10.9969 16.9211 10.9003C16.9211 10.8038 16.9401 10.7082 16.9771 10.6191C17.014 10.5299 17.0682 10.4489 17.1364 10.3806C17.2047 10.3124 17.2857 10.2582 17.3749 10.2213C17.464 10.1843 17.5596 10.1653 17.6561 10.1653H20.4881C20.6831 10.1653 20.87 10.2428 21.0079 10.3806C21.1457 10.5184 21.2231 10.7054 21.2231 10.9003C21.2231 11.0953 21.1457 11.2822 21.0079 11.4201C20.87 11.5579 20.6831 11.6353 20.4881 11.6353ZM13.6571 4.66633C13.5295 4.66738 13.4039 4.63349 13.2941 4.56833C13.1291 4.4735 13.0079 4.31766 12.9567 4.13437C12.9055 3.95108 12.9282 3.755 13.0201 3.58833L14.4311 1.11833C14.5326 0.95762 14.6924 0.842418 14.877 0.796851C15.0615 0.751284 15.2565 0.778887 15.4212 0.87388C15.5858 0.968872 15.7073 1.12389 15.7603 1.30646C15.8132 1.48903 15.7934 1.685 15.7051 1.85333L14.2941 4.31333C14.2281 4.42278 14.1346 4.51299 14.0228 4.57494C13.911 4.63689 13.7849 4.6684 13.6571 4.66633Z" fill="white"/>
</svg>
