<svg width="18" height="22" viewBox="0 0 18 22" fill="none" xmlns="http://www.w3.org/2000/svg">
<path d="M9 11.1504C11.3279 11.1504 13.4767 11.6793 15.0742 12.5771C16.6432 13.4611 17.8496 14.8137 17.8496 16.5V16.6016C17.8506 17.7583 17.8573 19.2662 16.5371 20.3418C15.8899 20.8677 14.9926 21.2377 13.7939 21.4795C12.5909 21.7233 11.0294 21.8496 9 21.8496C6.9706 21.8496 5.40813 21.7224 4.20703 21.4785C3.00856 21.2368 2.11005 20.8678 1.46387 20.3418C0.14366 19.2662 0.149395 17.7584 0.150391 16.6016V16.5C0.150391 14.8137 1.3568 13.4611 2.92676 12.5771C4.52331 11.6793 6.6731 11.1504 9 11.1504ZM9.00098 12.8496C6.90896 12.8496 5.05821 13.3294 3.75977 14.0596C2.43587 14.8042 1.84961 15.701 1.84961 16.5C1.84961 17.8173 1.89559 18.501 2.53711 19.0234L2.68164 19.1309C3.04768 19.3816 3.62403 19.6268 4.54395 19.8125V19.8135C5.59084 20.0256 7.02954 20.1504 9 20.1504C10.9705 20.1504 12.4081 20.0247 13.4561 19.8125C14.5074 19.6002 15.1102 19.3103 15.4629 19.0225L15.5762 18.9229C16.11 18.4132 16.1504 17.7352 16.1504 16.5C16.1504 15.7009 15.5651 14.8042 14.2402 14.0596C12.9418 13.3294 11.091 12.8496 9.00098 12.8496ZM9 0.150391C10.2863 0.150391 11.5201 0.660779 12.4297 1.57031C13.3392 2.47986 13.8496 3.7137 13.8496 5C13.8496 6.2863 13.3392 7.52014 12.4297 8.42969C11.5201 9.33922 10.2863 9.84961 9 9.84961C7.71372 9.84959 6.47985 9.33923 5.57031 8.42969C4.66078 7.52014 4.15039 6.28629 4.15039 5C4.15039 3.71371 4.66078 2.47986 5.57031 1.57031C6.47985 0.660774 7.71372 0.150406 9 0.150391ZM9 1.84961C8.16459 1.84962 7.36319 2.18173 6.77246 2.77246C6.18174 3.3632 5.84961 4.16458 5.84961 5C5.84961 5.83542 6.18174 6.6368 6.77246 7.22754C7.36319 7.81827 8.16459 8.15038 9 8.15039C9.83542 8.15039 10.6368 7.81826 11.2275 7.22754C11.8183 6.6368 12.1504 5.83543 12.1504 5C12.1504 4.16457 11.8183 3.3632 11.2275 2.77246C10.6368 2.18174 9.83542 1.84961 9 1.84961Z" fill="#00B105" stroke="#00B105" stroke-width="0.2"/>
</svg>
